<svg width="24" height="24" viewBox="0 0 24 24" fill="none" xmlns="http://www.w3.org/2000/svg">
<path d="M16.95 3H7.05C4.813 3 3 4.813 3 7.05V16.95C3 19.1865 4.813 21 7.05 21H16.95C19.187 21 21 19.1865 21 16.95V7.05C21 4.813 19.187 3 16.95 3Z" fill="url(#paint0_linear_1038_634)"/>
<path opacity="0.05" d="M6.1499 15.4884C5.4609 15.4884 4.8999 14.9314 4.8999 14.2464C4.8999 13.5614 5.4609 13.0044 6.1499 13.0044H8.0489L10.4834 8.84991L9.7719 7.63541C9.6029 7.34641 9.5564 7.00991 9.6409 6.68691C9.7254 6.36391 9.9309 6.09291 10.2189 5.92491C10.4109 5.81291 10.6289 5.75391 10.8499 5.75391C11.2924 5.75391 11.7059 5.99091 11.9289 6.37241L11.9324 6.37841L11.9354 6.37291C12.1579 5.99141 12.5714 5.75441 13.0144 5.75441C13.2359 5.75441 13.4539 5.81391 13.6459 5.92591C14.2409 6.27491 14.4409 7.04241 14.0919 7.63691L10.9464 13.0049H12.6104L12.7569 13.1524C12.8679 13.2639 12.9694 13.3904 13.0684 13.5394L13.1669 13.7044C13.4114 14.1599 13.4659 14.6634 13.3264 15.1314L13.2209 15.4884H6.1499Z" fill="black"/>
<path opacity="0.07" d="M6.1499 15.2384C5.5984 15.2384 5.1499 14.7934 5.1499 14.2464C5.1499 13.6994 5.5984 13.2544 6.1499 13.2544H8.1919L10.7729 8.84992L9.9869 7.50892C9.8519 7.27842 9.8144 7.00892 9.8824 6.74992C9.9499 6.49142 10.1139 6.27492 10.3444 6.14042C10.4979 6.05092 10.6724 6.00342 10.8494 6.00342C11.2034 6.00342 11.5344 6.19292 11.7129 6.49792L11.9319 6.87242L12.1509 6.49842C12.3289 6.19342 12.6599 6.00392 13.0139 6.00392C13.1909 6.00392 13.3654 6.05142 13.5189 6.14092C13.9949 6.42042 14.1544 7.03442 13.8754 7.50992L10.5099 13.2544H12.5059L12.5789 13.3279C12.6779 13.4274 12.7694 13.5414 12.8589 13.6769L12.9514 13.8319C13.1604 14.2224 13.2069 14.6549 13.0864 15.0599L13.0334 15.2384H6.1499Z" fill="black"/>
<path d="M12.6509 13.815C12.5769 13.703 12.4949 13.598 12.4019 13.5045H10.0739L13.6604 7.38351C13.8699 7.02601 13.7499 6.56651 13.3929 6.35701C13.0349 6.14751 12.5754 6.26751 12.3669 6.62501L11.9319 7.36701L11.4969 6.62451C11.2879 6.26701 10.8284 6.14751 10.4709 6.35651C10.1134 6.56551 9.9934 7.02501 10.2029 7.38251L11.0629 8.85001L8.3354 13.5045H6.1499C5.7354 13.5045 5.3999 13.837 5.3999 14.2465C5.3999 14.656 5.7354 14.9885 6.1499 14.9885H12.8469C12.9439 14.662 12.9174 14.2975 12.7364 13.9595L12.6509 13.815Z" fill="white"/>
<path opacity="0.05" d="M7.24982 18.0895C7.02832 18.0895 6.81032 18.03 6.61832 17.9175C6.33032 17.7485 6.12532 17.4775 6.04082 17.1545C5.95682 16.8315 6.00332 16.4945 6.17232 16.2065L6.52882 15.5975L6.74882 15.5535C6.92932 15.518 7.09782 15.5 7.26382 15.5L7.32282 15.5005C7.86332 15.5165 8.35282 15.7475 8.70582 16.1505L8.94382 16.4215L8.32932 17.4715C8.10532 17.853 7.69232 18.0895 7.24982 18.0895Z" fill="black"/>
<path opacity="0.07" d="M7.24991 17.8395C7.07291 17.8395 6.89791 17.792 6.74491 17.702C6.51491 17.567 6.35041 17.35 6.28291 17.0915C6.21541 16.833 6.25241 16.5635 6.38791 16.333L6.68791 15.821L6.79791 15.799C6.96241 15.766 7.11491 15.75 7.26391 15.75L7.31991 15.7505C7.78641 15.7645 8.21141 15.965 8.5179 16.315L8.63691 16.4505L8.1134 17.345C7.93491 17.65 7.60391 17.8395 7.24991 17.8395Z" fill="black"/>
<path d="M7.31306 16.0009C7.15456 15.9964 6.99906 16.0139 6.84706 16.0444L6.60356 16.4599C6.39406 16.8174 6.51406 17.2769 6.87156 17.4864C6.99056 17.5564 7.12156 17.5894 7.25006 17.5894C7.50756 17.5894 7.75856 17.4564 7.89756 17.2189L8.33006 16.4804C8.08656 16.2024 7.73506 16.0134 7.31506 16.0009H7.31306Z" fill="white"/>
<path opacity="0.05" d="M16.6147 18.0895C16.1722 18.0895 15.7587 17.8525 15.5357 17.4715L12.5222 12.329L12.5137 12.303C12.3052 11.6585 12.3462 10.994 12.6207 10.4065L13.4552 8.97754L15.8152 13.005H17.8502C18.5392 13.005 19.1002 13.562 19.1002 14.247C19.1002 14.932 18.5392 15.489 17.8502 15.489H17.2707L17.6917 16.2075C17.8607 16.4955 17.9072 16.832 17.8232 17.1555C17.7392 17.479 17.5337 17.7495 17.2457 17.9185C17.0547 18.03 16.8367 18.0895 16.6147 18.0895Z" fill="black"/>
<path opacity="0.07" d="M16.6144 17.8394C16.2604 17.8394 15.9294 17.6504 15.7509 17.3454L12.7509 12.2264L12.7424 12.2004C12.5619 11.6414 12.5984 11.0419 12.8464 10.5124L13.4544 9.47192L15.6709 13.2544H17.8499C18.4014 13.2544 18.8499 13.6994 18.8499 14.2464C18.8499 14.7934 18.4014 15.2384 17.8499 15.2384H16.8344L17.4759 16.3334C17.6114 16.5639 17.6484 16.8334 17.5809 17.0919C17.5134 17.3504 17.3494 17.5674 17.1189 17.7024C16.9664 17.7919 16.7919 17.8394 16.6144 17.8394Z" fill="black"/>
<path d="M17.8499 13.5046H15.5284L13.4549 9.96655L13.0734 10.6181C12.8514 11.0931 12.8214 11.6301 12.9809 12.1236L15.9669 17.2191C16.1064 17.4571 16.3569 17.5896 16.6144 17.5896C16.7429 17.5896 16.8739 17.5566 16.9929 17.4866C17.3504 17.2771 17.4699 16.8176 17.2604 16.4601L16.3979 14.9886H17.8499C18.2644 14.9886 18.5999 14.6561 18.5999 14.2466C18.5999 13.8371 18.2644 13.5046 17.8499 13.5046Z" fill="white"/>
<defs>
<linearGradient id="paint0_linear_1038_634" x1="12" y1="2.3085" x2="12" y2="20.048" gradientUnits="userSpaceOnUse">
<stop stop-color="#33BEF0"/>
<stop offset="1" stop-color="#0A85D9"/>
</linearGradient>
</defs>
</svg>
