<svg width="160" height="33" viewBox="0 0 160 33" fill="none" xmlns="http://www.w3.org/2000/svg">
<path d="M156.298 11.2293H159.295C159.8 11.2293 160.142 11.6466 159.942 12.0204L153.067 24.9466C151.328 28.2155 148.305 29.5518 144.743 29.5518C144.743 29.5518 144.31 29.5518 143.612 29.4993C143.197 29.4686 142.906 29.155 142.985 28.8261L143.467 26.8242C143.54 26.5209 143.902 26.3225 144.279 26.3737C144.718 26.4339 145.106 26.4569 145.459 26.4569C147.178 26.4569 148.144 25.8873 148.672 25.095L149.112 24.4499C149.358 24.0877 149.059 23.641 148.548 23.6116C147.164 23.5322 145.873 23.1725 145.78 21.5547L145.203 11.8245C145.184 11.5007 145.504 11.2293 145.906 11.2293H149.02C149.403 11.2293 149.717 11.4777 149.723 11.7874L149.91 20.3016C149.924 20.9224 150.984 21.0773 151.267 20.5L155.644 11.5877C155.75 11.3714 156.01 11.2293 156.298 11.2293ZM73.9134 11.2293H76.471C76.9137 11.2293 77.2456 11.5545 77.1615 11.9052L74.4449 23.1751C74.381 23.4413 74.0911 23.6346 73.7545 23.6346H71.1969C70.7543 23.6346 70.4223 23.3095 70.5065 22.9588L70.5143 22.9242C70.6483 22.3687 69.8145 22.0244 69.3157 22.4238C68.2279 23.2941 66.7379 23.8829 64.7585 23.8829C60.9526 23.8829 59.2117 21.6788 60.2013 17.5689C61.1801 13.5077 63.9871 11.0322 68.0393 11.0322C70.0046 11.0322 71.1455 11.6223 71.7829 12.4696C72.1196 12.9163 72.9518 12.8126 73.075 12.2994L73.223 11.6888C73.2869 11.4226 73.5768 11.2293 73.9134 11.2293ZM68.8871 13.7547C67.0761 13.7547 65.0983 14.5713 64.3829 17.5433C63.786 20.0188 64.7523 21.1093 66.808 21.1093C69.202 21.1093 71.3154 19.5989 71.8406 17.4205L71.9185 17.0979C72.3783 15.1908 71.2499 13.7547 68.8871 13.7547ZM123.676 17.4192H114.165C113.727 17.4192 113.349 17.67 113.265 18.0169L112.029 23.1431C111.961 23.4285 111.651 23.6346 111.291 23.6346H108.741C108.317 23.6346 107.997 23.3223 108.078 22.987L111.953 6.90056C112.037 6.55369 112.413 6.30282 112.852 6.30282H124.898C127.255 6.30282 129.025 8.03587 128.576 9.90204L127.355 14.9745C127.012 16.3952 125.47 17.4205 123.676 17.4205V17.4192ZM123.58 14.0696L124.577 9.92892C124.647 9.63965 124.373 9.37214 124.008 9.37214H115.827C115.55 9.37214 115.312 9.53085 115.259 9.75101L114.261 13.8916C114.191 14.1809 114.465 14.4484 114.83 14.4484H123.011C123.288 14.4484 123.527 14.2897 123.58 14.0696ZM104.681 10.9823C102.792 10.9823 101.048 11.6991 99.7635 12.7192C99.2726 13.1096 98.4528 12.7486 98.5837 12.2034L99.843 6.97864C99.9272 6.62793 99.5952 6.30282 99.1526 6.30282H96.595C96.2584 6.30282 95.9685 6.49481 95.9046 6.76232L92.002 22.9601C91.9178 23.3108 92.2498 23.6359 92.6924 23.6359H95.25C95.5866 23.6359 95.8765 23.4439 95.9404 23.1764L97.3213 17.4461C97.8465 15.2676 100.052 13.7572 102.201 13.7572C103.981 13.7572 104.676 14.8222 104.218 16.728L102.703 23.0126C102.625 23.3364 102.932 23.6359 103.34 23.6359H105.963C106.3 23.6359 106.59 23.4439 106.654 23.1764L108.482 15.5889C109.162 12.7666 107.689 10.9836 104.681 10.9836V10.9823ZM89.5145 16.2557H91.6622C92.0565 16.2557 92.3963 16.0292 92.4711 15.7168L92.7127 14.7031C93.1413 12.901 91.43 11.2293 89.1545 11.2293H81.6205C79.8858 11.2293 78.3943 12.2213 78.0639 13.5947L76.4835 20.1544C76.0487 21.9592 77.7615 23.6346 80.0401 23.6346H87.5648C89.2979 23.6346 90.7894 22.6439 91.1214 21.2705L91.6279 19.1765C91.7277 18.767 91.338 18.3855 90.8206 18.3855H88.6885C88.2957 18.3855 87.9575 18.6095 87.8812 18.9206L87.5258 20.3759C87.4494 20.6869 87.1112 20.9109 86.7185 20.9109H81.0765C80.5591 20.9109 80.1695 20.5295 80.2677 20.1199L81.6189 14.515C81.6937 14.2027 82.0335 13.9774 82.4278 13.9774H88.3238C88.8412 13.9774 88.9737 14.3575 88.8755 14.7671L88.7087 15.466C88.6106 15.8756 89.0002 16.2557 89.5176 16.2557H89.5145ZM141.045 11.2293H143.602C144.045 11.2293 144.377 11.5545 144.293 11.9052L141.576 23.1751C141.512 23.4413 141.222 23.6346 140.886 23.6346H138.328C137.886 23.6346 137.554 23.3095 137.638 22.9588L137.646 22.9242C137.78 22.3687 136.946 22.0244 136.447 22.4238C135.359 23.2941 133.869 23.8816 131.89 23.8816C128.084 23.8816 126.343 21.6776 127.333 17.5677C128.311 13.5064 131.118 11.031 135.171 11.031C137.136 11.031 138.277 11.621 138.914 12.4683C139.251 12.915 140.083 12.8114 140.206 12.2981L140.354 11.6876C140.418 11.4213 140.708 11.2281 141.045 11.2281V11.2293ZM136.018 13.7547C134.207 13.7547 132.23 14.5713 131.514 17.5433C130.917 20.0188 131.884 21.1093 133.939 21.1093C136.333 21.1093 138.448 19.5989 138.972 17.4205L139.05 17.0979C139.51 15.1908 138.381 13.7547 136.018 13.7547ZM64.69 6.30154H49.2183C48.746 6.30154 48.3408 6.57161 48.2504 6.94536L47.8935 8.42498C47.775 8.91648 48.241 9.37214 48.8613 9.37214H53.2144C53.8347 9.37214 54.3007 9.8278 54.1822 10.3193L51.2023 22.6874C51.0838 23.1789 51.5498 23.6346 52.1701 23.6346H54.1511C54.6233 23.6346 55.0285 23.3645 55.1189 22.9908L58.2454 10.016C58.3358 9.64221 58.741 9.37214 59.2132 9.37214H64.3331C64.8053 9.37214 65.2105 9.10207 65.3009 8.72833L65.6578 7.2487C65.7763 6.7572 65.3103 6.30154 64.69 6.30154ZM41.4333 8.46722C40.7974 7.9002 39.8545 7.62373 38.8492 7.70821L26.7549 8.75392L24.2456 8.97024C22.4798 9.12127 20.8948 10.3385 20.5534 11.8002L16.7225 28.3269C16.6493 28.6367 16.2004 28.9592 15.9043 28.9861L10.5102 29.4494L14.2974 13.1237C14.4922 12.2763 14.232 11.4546 13.5821 10.8748C12.9446 10.3052 12.0032 10.0288 10.9949 10.1158L3.32992 10.7762L4.39129 6.19787C4.46143 5.88812 4.91185 5.56429 5.20641 5.53869L27.9519 3.57397L35.4672 2.92632L36.1077 0.166748L28.5909 0.814402L4.86353 2.8636C3.0977 3.01464 1.50954 4.23186 1.17133 5.69357L0.0632059 10.4703C-0.131613 11.3177 0.128665 12.1368 0.77858 12.7192C1.41603 13.2862 2.35739 13.5653 3.36577 13.4782L11.0307 12.8178L7.24344 29.1435C7.04862 29.9908 7.3089 30.8126 7.95881 31.3924C8.51989 31.8928 9.31631 32.1667 10.1829 32.1667C10.3013 32.1667 10.4244 32.1629 10.546 32.1514L16.2441 31.6599C18.0099 31.5089 19.598 30.2916 19.9363 28.8299L23.7703 12.3032C23.8435 11.9935 24.294 11.6709 24.5885 11.6441L26.1112 11.5122L38.882 10.4115L37.4247 16.6973C37.3546 17.007 36.9042 17.3296 36.6096 17.3565L24.5137 18.4022L23.8747 21.1605L36.9525 20.0303C38.7183 19.8792 40.3065 18.662 40.6447 17.2003L42.1487 10.7174C42.3466 9.87004 42.0832 9.05087 41.4333 8.46849V8.46722Z" fill="url(#paint0_linear_1038_680)"/>
<defs>
<linearGradient id="paint0_linear_1038_680" x1="69.7568" y1="44.4466" x2="79.8906" y2="-5.04864" gradientUnits="userSpaceOnUse">
<stop offset="0.3" stop-color="#0B2B26"/>
<stop offset="0.64" stop-color="#0F3C35"/>
<stop offset="1" stop-color="#155449"/>
</linearGradient>
</defs>
</svg>
