<svg width="160" height="157" viewBox="0 0 160 157" fill="none" xmlns="http://www.w3.org/2000/svg">
<g filter="url(#filter0_di_1038_378)">
<path d="M92.03 131.25H67.97C39.0298 131.25 24.5597 131.25 19.2273 121.837C13.8948 112.424 21.296 99.9462 36.0984 74.9906L48.1286 54.7083C62.3475 30.7361 69.4569 18.75 80 18.75C90.5432 18.75 97.6525 30.7361 111.871 54.7082L123.902 74.9906C138.704 99.9462 146.105 112.424 140.773 121.837C135.44 131.25 120.97 131.25 92.03 131.25Z" fill="#0B2B26"/>
<path d="M92.03 131.25H67.97C39.0298 131.25 24.5597 131.25 19.2273 121.837C13.8948 112.424 21.296 99.9462 36.0984 74.9906L48.1286 54.7083C62.3475 30.7361 69.4569 18.75 80 18.75C90.5432 18.75 97.6525 30.7361 111.871 54.7082L123.902 74.9906C138.704 99.9462 146.105 112.424 140.773 121.837C135.44 131.25 120.97 131.25 92.03 131.25Z" stroke="white" stroke-width="1.5" stroke-linecap="round" stroke-linejoin="round"/>
</g>
<path d="M80 56.25V84.375" stroke="white" stroke-width="7" stroke-linecap="round" stroke-linejoin="round"/>
<path d="M80 106.201V106.264" stroke="white" stroke-width="7" stroke-linecap="round" stroke-linejoin="round"/>
<defs>
<filter id="filter0_di_1038_378" x="0.75" y="11" width="158.5" height="146" filterUnits="userSpaceOnUse" color-interpolation-filters="sRGB">
<feFlood flood-opacity="0" result="BackgroundImageFix"/>
<feColorMatrix in="SourceAlpha" type="matrix" values="0 0 0 0 0 0 0 0 0 0 0 0 0 0 0 0 0 0 127 0" result="hardAlpha"/>
<feOffset dy="9"/>
<feGaussianBlur stdDeviation="8"/>
<feComposite in2="hardAlpha" operator="out"/>
<feColorMatrix type="matrix" values="0 0 0 0 0 0 0 0 0 0 0 0 0 0 0 0 0 0 0.2 0"/>
<feBlend mode="normal" in2="BackgroundImageFix" result="effect1_dropShadow_1038_378"/>
<feBlend mode="normal" in="SourceGraphic" in2="effect1_dropShadow_1038_378" result="shape"/>
<feColorMatrix in="SourceAlpha" type="matrix" values="0 0 0 0 0 0 0 0 0 0 0 0 0 0 0 0 0 0 127 0" result="hardAlpha"/>
<feOffset dy="-6"/>
<feGaussianBlur stdDeviation="4"/>
<feComposite in2="hardAlpha" operator="arithmetic" k2="-1" k3="1"/>
<feColorMatrix type="matrix" values="0 0 0 0 0 0 0 0 0 0 0 0 0 0 0 0 0 0 0.5 0"/>
<feBlend mode="normal" in2="shape" result="effect2_innerShadow_1038_378"/>
</filter>
</defs>
</svg>
