<svg width="20" height="20" viewBox="0 0 20 20" fill="none" xmlns="http://www.w3.org/2000/svg">
<path d="M18.9027 10.8045C18.5211 12.3623 16.4907 13.4813 12.4297 15.719C8.01298 18.1528 5.80457 19.3697 4.01578 18.9009C3.40994 18.7422 2.85194 18.4629 2.3834 18.084C1 16.9658 1 14.6438 1 9.99992C1 5.3562 1 3.03432 2.3834 1.91588C2.85194 1.53708 3.40994 1.25789 4.01578 1.09909C5.80457 0.630258 8.01298 1.84716 12.4297 4.28097C16.4907 6.51871 18.5211 7.63751 18.9027 9.19549C19.0324 9.7255 19.0324 10.2745 18.9027 10.8045Z" stroke="black" stroke-width="1.5" stroke-linejoin="round"/>
<path d="M2.63623 18.2811L15.7272 6.19546M2.63623 1.91748L15.7272 14.0032" stroke="black" stroke-width="1.5" stroke-linejoin="round"/>
</svg>
