<svg width="17" height="17" viewBox="0 0 17 17" fill="none" xmlns="http://www.w3.org/2000/svg">
<path d="M7.16683 4.49992C7.16683 3.02716 5.97292 1.83325 4.50016 1.83325C3.0274 1.83325 1.8335 3.02716 1.8335 4.49992C1.8335 5.97268 3.0274 7.16659 4.50016 7.16659C5.97292 7.16659 7.16683 5.97268 7.16683 4.49992Z" stroke="white" stroke-width="1.5"/>
<path d="M7.16683 12.4999C7.16683 11.0272 5.97292 9.83325 4.50016 9.83325C3.0274 9.83325 1.8335 11.0272 1.8335 12.4999C1.8335 13.9727 3.0274 15.1666 4.50016 15.1666C5.97292 15.1666 7.16683 13.9727 7.16683 12.4999Z" stroke="white" stroke-width="1.5"/>
<path d="M15.1668 4.49992C15.1668 3.02716 13.9729 1.83325 12.5002 1.83325C11.0274 1.83325 9.8335 3.02716 9.8335 4.49992C9.8335 5.97268 11.0274 7.16659 12.5002 7.16659C13.9729 7.16659 15.1668 5.97268 15.1668 4.49992Z" stroke="white" stroke-width="1.5"/>
<path d="M15.1668 12.4999C15.1668 11.0272 13.9729 9.83325 12.5002 9.83325C11.0274 9.83325 9.8335 11.0272 9.8335 12.4999C9.8335 13.9727 11.0274 15.1666 12.5002 15.1666C13.9729 15.1666 15.1668 13.9727 15.1668 12.4999Z" stroke="white" stroke-width="1.5"/>
</svg>
