<svg width="17" height="17" viewBox="0 0 17 17" fill="none" xmlns="http://www.w3.org/2000/svg">
<path d="M9.6519 2.79604L10.8251 5.16184C10.9851 5.49116 11.4117 5.80705 11.7717 5.86754L13.8981 6.22375C15.258 6.45227 15.578 7.44698 14.598 8.42825L12.9449 10.0951C12.6649 10.3773 12.5116 10.9217 12.5982 11.3116L13.0716 13.3749C13.4448 15.0081 12.5849 15.6399 11.1518 14.7863L9.15863 13.5967C8.7987 13.3817 8.20543 13.3817 7.83876 13.5967L5.84568 14.7863C4.41916 15.6399 3.5526 15.0014 3.92589 13.3749L4.39917 11.3116C4.48582 10.9217 4.33251 10.3773 4.05254 10.0951L2.39939 8.42825C1.42616 7.44698 1.73946 6.45227 3.09931 6.22375L5.22574 5.86754C5.57904 5.80705 6.00566 5.49116 6.16564 5.16184L7.33883 2.79604C7.97876 1.51232 9.01863 1.51232 9.6519 2.79604Z" stroke="white" stroke-width="1.5" stroke-linecap="round" stroke-linejoin="round"/>
</svg>
