<svg width="19" height="15" viewBox="0 0 19 15" fill="none" xmlns="http://www.w3.org/2000/svg">
<path d="M1.26913 6.45746C6.22486 4.34063 9.52945 2.94509 11.1829 2.27083C15.9039 0.345685 16.8848 0.0112675 17.5242 0.000107056C17.6649 -0.00220392 17.9793 0.0319646 18.183 0.193996C18.3549 0.330811 18.4023 0.51563 18.4249 0.645347C18.4475 0.775063 18.4757 1.07056 18.4533 1.30145C18.1975 3.93683 17.0905 10.3322 16.5274 13.2839C16.2891 14.5328 15.8198 14.9516 15.3656 14.9926C14.3784 15.0816 13.6288 14.3529 12.6726 13.7385C11.1764 12.7769 10.3312 12.1783 8.87888 11.24C7.20049 10.1557 8.28852 9.55967 9.24503 8.58566C9.49535 8.33076 13.845 4.45196 13.9292 4.10009C13.9397 4.05608 13.9495 3.89204 13.8501 3.80543C13.7507 3.71881 13.604 3.74843 13.4981 3.77199C13.348 3.80538 10.9579 5.35425 6.32757 8.41859C5.64912 8.87533 5.03461 9.09787 4.48403 9.08621C3.87706 9.07335 2.70949 8.74974 1.84152 8.47313C0.776917 8.13385 -0.0692058 7.95447 0.00447248 7.37827C0.0428487 7.07814 0.464403 6.77121 1.26913 6.45746Z" fill="#0C1518"/>
</svg>
