<svg width="12" height="18" viewBox="0 0 12 18" fill="none" xmlns="http://www.w3.org/2000/svg">
<path fill-rule="evenodd" clip-rule="evenodd" d="M0.702312 4.66444C0.702312 2.08838 2.94271 0 5.70646 0C8.47021 0 10.7106 2.08838 10.7106 4.66444C10.7106 7.24057 8.47021 9.32908 5.70646 9.32908C2.94271 9.32908 0.702312 7.24057 0.702312 4.66444ZM3.63786 4.66451C3.63786 5.72939 4.56402 6.59275 5.70646 6.59275C6.8489 6.59275 7.77506 5.72939 7.77506 4.66451C7.77506 3.59963 6.8489 2.73633 5.70646 2.73633C4.56402 2.73633 3.63786 3.59963 3.63786 4.66451Z" fill="#0C1518"/>
<path d="M7.47314 13.0406C9.47651 12.6602 10.677 11.7758 10.7405 11.7284C11.3268 11.2902 11.4209 10.492 10.9508 9.94546C10.4807 9.39904 9.62446 9.31126 9.03809 9.74942C9.02571 9.75876 7.74527 10.6743 5.6385 10.6757C3.5318 10.6743 2.2243 9.75876 2.21191 9.74942C1.62554 9.31126 0.76927 9.39904 0.299205 9.94546C-0.170932 10.492 -0.0767615 11.2902 0.509459 11.7284C0.573839 11.7765 1.82391 12.6839 3.88342 13.0553L1.01311 15.8514C0.491485 16.3556 0.507168 17.1585 1.04813 17.6448C1.31217 17.8821 1.65247 18 1.99249 18C2.34897 18 2.7051 17.8702 2.97207 17.612L5.63857 14.9644L8.5744 17.6292C9.10634 18.1242 9.9677 18.1234 10.4986 17.6278C11.0296 17.1321 11.0289 16.3291 10.4971 15.8342L7.47314 13.0406Z" fill="#0C1518"/>
</svg>
