<svg width="20" height="12" viewBox="0 0 20 12" fill="none" xmlns="http://www.w3.org/2000/svg">
<path fill-rule="evenodd" clip-rule="evenodd" d="M2.93775 0H0.750191C0.125032 0 0 0.297095 0 0.625516C0 1.21061 0.741188 4.11486 3.45388 7.95486C5.26134 10.5782 7.80898 12 10.1266 12C11.5179 12 11.69 11.6837 11.69 11.1411V9.1584C11.69 8.52682 11.822 8.40051 12.2621 8.40051C12.5872 8.40051 13.1423 8.56421 14.4417 9.82838C15.925 11.328 16.1691 12 17.0033 12H19.1919C19.817 12 20.1301 11.6837 19.9491 11.0602C19.752 10.4397 19.0438 9.53836 18.1036 8.47023C17.5935 7.86189 16.8293 7.20606 16.5972 6.87764C16.2721 6.45625 16.3652 6.26931 16.5972 5.8944C16.5972 5.8944 19.2629 2.10088 19.541 0.812463C19.681 0.344589 19.541 0 18.8788 0H16.6912C16.1351 0 15.878 0.297095 15.739 0.625516C15.739 0.625516 14.6267 3.36505 13.0503 5.14459C12.5402 5.65996 12.3081 5.82467 12.0301 5.82467C11.891 5.82467 11.69 5.65996 11.69 5.19208V0.812463C11.69 0.25061 11.5289 0 11.0648 0H7.62594C7.27885 0 7.0698 0.260716 7.0698 0.508295C7.0698 1.04084 7.858 1.16413 7.93902 2.66274V5.91764C7.93902 6.63208 7.81198 6.76143 7.53291 6.76143C6.79173 6.76143 4.98727 4.00876 3.917 0.859958C3.70694 0.247579 3.49689 0 2.93775 0Z" fill="#0C1518"/>
</svg>
